Coordinates
version=1
nRows=19
nColumns=33
inDegrees=yes

Units are S.I. units (second, meters, Newtons, ...)
Angles are in degrees.

endheader
time	ground_thorax_rot_x	ground_thorax_rot_y	ground_thorax_rot_z	ground_thorax_tx	ground_thorax_ty	ground_thorax_tz	clav_prot_r	clav_elev_r	scapula_abduction_r	scapula_elevation_r	scapula_upward_rot_r	scapula_winging_r	shoulder_elv_r	plane_of_elev_r	axial_rot_r	elbow_flexion_r	pro_sup_r	wrist_flex_r	wrist_dev_r	clav_prot_l	clav_elev_l	scapula_abduction_l	scapula_elevation_l	scapula_upward_rot_l	scapula_winging_l	shoulder_elv_l	plane_of_elev_l	axial_rot_l	elbow_flexion_l	pro_sup_l	wrist_flex_l	wrist_dev_l
      9.32000000	     18.13302350	     36.56950593	     55.53409204	    -41.05731747	    783.61897187	     17.64493946	     14.90516687	     45.00000000	     45.00000000	     41.97617601	     45.00000000	  -2555.29128277	  -1604.50722467	    -90.00000000	    -98.88964493	    355.21448844	    -85.35014199	     16.11624523	      9.42354761	     10.20489126	    -45.00000000	    -39.78767036	     45.00000000	    -45.00000000	    812.12971988	  -2813.12152151	     16.30812820	    -65.76343409	   -352.56148880	     27.56183936	      8.79227192	    -18.84251674
      9.33000000	     18.10059543	     36.64299918	     55.59444483	    -41.38752142	    783.56559554	     17.69109111	     14.89706127	     45.00000000	     45.00000000	     42.04910617	     45.00000000	  -2555.25936637	  -1604.40689130	    -90.00000000	    -98.98009514	    355.27026517	    -85.34863964	     15.95181154	      9.56044369	     10.06205272	    -45.00000000	    -39.66140264	     45.00000000	    -45.00000000	    812.09977122	  -2813.08932394	     16.24493435	    -65.82057375	   -352.61396267	     27.53106160	      8.99388615	    -18.98619837
      9.34000000	     18.10825525	     36.60612447	     55.51230804	    -41.77138836	    783.46529315	     17.70828314	     14.91206858	     45.00000000	     45.00000000	     41.97163291	     45.00000000	  -2555.17908327	  -1604.40778893	    -90.00000000	    -98.96941121	    355.30327931	    -85.40647033	     16.14528366	      9.44222681	     10.08764521	    -45.00000000	    -39.71557691	     45.00000000	    -45.00000000	    812.21072106	  -2813.09245858	     16.31960274	    -65.79712471	   -352.58010737	     27.45979630	      8.81842113	    -18.83673382
      9.35000000	     18.09881006	     36.66716838	     55.54226761	    -42.20918207	    783.32799333	     17.69748317	     14.91387831	     45.00000000	     45.00000000	     42.03917160	     45.00000000	  -2555.12217376	  -1604.31303324	    -90.00000000	    -99.05419598	    355.33441563	    -85.46450584	     15.91117382	      9.62763977	     10.05247001	    -45.00000000	    -39.62746539	     45.00000000	    -45.00000000	    812.17834925	  -2813.03426333	     16.26730044	    -65.74153685	   -352.63450718	     27.41107226	      9.03269581	    -18.98308595
      9.36000000	     18.12371157	     36.67346733	     55.46580717	    -42.70054345	    783.16277496	     17.65958513	     14.92787219	     45.00000000	     45.00000000	     42.08498575	     45.00000000	  -2555.12504692	  -1604.30760986	    -90.00000000	    -99.04963446	    355.37292540	    -85.59425207	     16.18314969	      9.46407305	     10.04759281	    -45.00000000	    -39.69299307	     45.00000000	    -45.00000000	    812.26899818	  -2813.06525732	     16.32211598	    -65.71091467	   -352.63390886	     27.34527933	      8.88074589	    -18.83896812
      9.37000000	     18.13756661	     36.69524201	     55.47056430	    -43.24655387	    782.97842565	     17.59567442	     14.93129101	     45.00000000	     45.00000000	     42.10166666	     45.00000000	  -2555.03614761	  -1604.24590620	    -90.00000000	    -99.10133702	    355.38887567	    -85.69686231	     15.86067074	      9.70205996	     10.04938232	    -45.00000000	    -39.58621198	     45.00000000	    -45.00000000	    812.25290393	  -2812.98439163	     16.26713834	    -65.67421157	   -352.66730801	     27.30285335	      9.07020430	    -18.98000291
      9.38000000	     18.17844808	     36.68351379	     55.36393534	    -43.84826765	    782.78274191	     17.50689759	     14.94320170	     45.00000000	     45.00000000	     42.14244958	     45.00000000	  -2555.03383079	  -1604.20711626	    -90.00000000	    -99.13012001	    355.46714403	    -85.88564792	     16.24638555	      9.50175266	     10.01575363	    -45.00000000	    -39.67200742	     45.00000000	    -45.00000000	    812.36907643	  -2813.02111870	     16.34950948	    -65.62001306	   -352.65266419	     27.24402161	      8.91667152	    -18.84657820
      9.39000000	     18.20641769	     36.70089832	     55.36792668	    -44.50813291	    782.58148188	     17.39413178	     14.94648033	     45.00000000	     45.00000000	     42.14498615	     45.00000000	  -2554.90006886	  -1604.14951720	    -90.00000000	    -99.17765036	    355.48547267	    -86.02516692	     15.80626258	      9.79081146	     10.04006001	    -45.00000000	    -39.55779582	     45.00000000	    -45.00000000	    812.34374870	  -2812.91441665	     16.28529307	    -65.57171125	   -352.68634522	     27.22052141	      9.09383370	    -18.98385298
      9.40000000	     18.25202425	     36.69637283	     55.25467787	    -45.22318708	    782.38042919	     17.25905733	     14.95770405	     45.00000000	     45.00000000	     42.23524306	     45.00000000	  -2554.94390694	  -1604.10198821	    -90.00000000	    -99.21506236	    355.58265812	    -86.26902202	     16.32981852	      9.55389973	     10.00442745	    -45.00000000	    -39.67095957	     45.00000000	    -45.00000000	    812.47940787	  -2812.95510299	     16.37999691	    -65.53647408	   -352.65639814	     27.18932976	      8.93822798	    -18.86361061
      9.41000000	     18.29881296	     36.68545880	     55.25165908	    -45.99851183	    782.18146205	     17.10215093	     14.95883485	     45.00000000	     45.00000000	     42.20639959	     45.00000000	  -2554.77065569	  -1604.05780721	    -90.00000000	    -99.24907945	    355.60969252	    -86.43587697	     15.76238926	      9.88928188	     10.03936551	    -45.00000000	    -39.54350699	     45.00000000	    -45.00000000	    812.45675893	  -2812.83608749	     16.30285499	    -65.49106891	   -352.68793399	     27.19784926	      9.09029312	    -18.99355179
      9.42000000	     18.36041047	     36.66645998	     55.11071601	    -46.82864765	    781.98846210	     16.92617280	     14.96894540	     45.00000000	     45.00000000	     42.30379419	     45.00000000	  -2554.81643392	  -1603.99149801	    -90.00000000	    -99.30535689	    355.73136190	    -86.72981325	     16.45926040	      9.62063701	      9.99672723	    -45.00000000	    -39.67363129	     45.00000000	    -45.00000000	    812.62702569	  -2812.87159581	     16.43120811	    -65.45693131	   -352.61971074	     27.19795883	      8.93332999	    -18.89269003
      9.43000000	     18.38461773	     36.68301944	     55.13684417	    -47.72544894	    781.80058773	     16.73063746	     14.97040660	     45.00000000	     45.00000000	     42.38998020	     45.00000000	  -2554.74094047	  -1603.95417973	    -90.00000000	    -99.33215677	    355.77027265	    -86.92887237	     15.75162818	      9.98241370	     10.04681529	    -45.00000000	    -39.55710365	     45.00000000	    -45.00000000	    812.57637925	  -2812.74234579	     16.32577545	    -65.40534106	   -352.65625592	     27.24401130	      9.06249264	    -19.01312281
      9.44000000	     18.49306812	     36.68460804	     54.97220219	    -48.67640003	    781.62293120	     16.52044506	     14.97952122	     45.00000000	     45.00000000	     42.52889640	     45.00000000	  -2554.79294048	  -1603.93486559	    -90.00000000	    -99.34123860	    355.87271083	    -87.25908422	     16.52023765	      9.72943483	     10.03260122	    -45.00000000	    -39.64288951	     45.00000000	    -45.00000000	    812.73784974	  -2812.75051286	     16.46819360	    -65.43830229	   -352.58850170	     27.28747619	      8.93029227	    -18.93849880
      9.45000000	     18.44630045	     36.76377015	     55.05023601	    -49.69598567	    781.45547547	     16.29488068	     14.97785616	     45.00000000	     45.00000000	     42.60590291	     45.00000000	  -2554.73978170	  -1603.88022034	    -90.00000000	    -99.38498802	    355.93935028	    -87.50905687	     15.89999142	     10.04736758	     10.04959624	    -45.00000000	    -39.61738344	     45.00000000	    -45.00000000	    812.70826348	  -2812.68158284	     16.35589522	    -65.36216703	   -352.63513812	     27.35526154	      9.00087512	    -19.02082760
      9.46000000	     18.53897173	     36.86993613	     54.93589639	    -50.79322867	    781.30060666	     16.05424002	     14.97433113	     45.00000000	     45.00000000	     42.95273733	     45.00000000	  -2554.87817963	  -1603.80415719	    -90.00000000	    -99.44845281	    356.04375212	    -87.88924152	     16.23683749	      9.95022244	     10.08684497	    -45.00000000	    -39.67208220	     45.00000000	    -45.00000000	    812.78675562	  -2812.70425020	     16.45839296	    -65.29042152	   -352.54146146	     27.40963901	      8.92572046	    -19.00507201
      9.47000000	     18.59669184	     36.88418696	     54.88942396	    -51.96052124	    781.16370810	     15.80234919	     14.97576084	     45.00000000	     45.00000000	     43.05540275	     45.00000000	  -2554.86896681	  -1603.82018957	    -90.00000000	    -99.41985128	    356.08078747	    -88.24327851	     16.21045929	     10.05108296	     10.12874542	    -45.00000000	    -39.64185203	     45.00000000	    -45.00000000	    812.87768093	  -2812.60885255	     16.45689786	    -65.32417695	   -352.44291569	     27.48034346	      8.90946563	    -19.05317604
      9.48000000	     18.70436812	     36.88954764	     54.76048899	    -53.21017227	    781.04845732	     15.53897118	     14.97071920	     45.00000000	     45.00000000	     43.14656196	     45.00000000	  -2554.78226769	  -1603.72006328	    -90.00000000	    -99.50786297	    356.23801173	    -88.60841456	     16.31538846	     10.11996426	     10.09916983	    -45.00000000	    -39.66688852	     45.00000000	    -45.00000000	    812.96463367	  -2812.59702411	     16.50836014	    -65.25485536	   -352.41933775	     27.52598257	      8.87116629	    -19.06058975
      9.49000000	     18.77809656	     36.92965617	     54.66310981	    -54.54312974	    780.96011123	     15.26627401	     14.96784226	     45.00000000	     45.00000000	     43.30827271	     45.00000000	  -2554.76385194	  -1603.66009466	    -90.00000000	    -99.55533785	    356.33706476	    -89.00293907	     16.34402428	     10.18386036	     10.14539967	    -45.00000000	    -39.65209457	     45.00000000	    -45.00000000	    813.05688753	  -2812.49919354	     16.57357049	    -65.14951599	   -352.28425926	     27.54120532	      8.84194547	    -19.10104272
      9.50000000	     18.88033698	     36.95953632	     54.54471678	    -55.96474924	    780.90406256	     14.98555244	     14.96037587	     45.00000000	     45.00000000	     43.45334705	     45.00000000	  -2554.72647739	  -1603.58965210	    -90.00000000	    -99.61352524	    356.46155740	    -89.41801004	     16.43498092	     10.26639360	     10.16766148	    -45.00000000	    -39.66575647	     45.00000000	    -45.00000000	    813.17267063	  -2812.46299544	     16.63013410	    -65.10608197	   -352.18638959	     27.54503458	      8.80527877	    -19.13131887
